<svg id="Capa_1" data-name="Capa 1" xmlns="http://www.w3.org/2000/svg" viewBox="0 0 463.29 102.01"><defs><style>.cls-1{fill:#71706f;}.cls-2{fill:#6395bb;}.cls-3{fill:#585857;}.cls-4{fill:#fff;}.cls-5{fill:#4e819f;}</style></defs><title>Logo svg</title><path class="cls-1" d="M215.87,403.24a11,11,0,0,1-.47,3.21,12.78,12.78,0,0,1-3.73,5.85,11.59,11.59,0,0,1-2.8,1.84,18.05,18.05,0,0,1-7.64,1.47c-9.87,0-15.75-5-15.75-13.31v-.55h7v.55c0,4.54,2.53,6.41,8.73,6.41,2.89,0,4.67-.39,5.83-1.3s1.78-2.59,1.78-5.11c0-1.12-.8-2.11-2.36-2.95a25,25,0,0,0-5.14-1.91c-2.34-.66-4.86-1.27-7.69-1.89-1.89-.42-4.41-1.32-5.74-3.27a8.92,8.92,0,0,1-1.16-5.87,12.15,12.15,0,0,1,3.21-7.55l.11-.11c2.31-2.18,5.59-3.21,10.06-3.21,9.4,0,14.59,4.7,14.64,13.25v.55l-.56.08h-6.44v-.55c0-4.81-1.93-6.41-7.64-6.41h-.06c-1.61,0-3.43.09-4.68,1a3.78,3.78,0,0,0-1.29,1.93,7,7,0,0,0-.36,2.75,1.63,1.63,0,0,0,.29.86,3.17,3.17,0,0,0,1.41.79l.24.06a17.82,17.82,0,0,0,1.92.6l.57.17a19.64,19.64,0,0,0,2.32.57,57.59,57.59,0,0,1,8.95,2.55,10.21,10.21,0,0,1,5.44,5.19,9.73,9.73,0,0,1,1,4.28" transform="translate(-74.84 -345.15)"/><path class="cls-1" d="M253,376.76V398a15.76,15.76,0,0,1-16.27,15.64c-8.73-.21-15.46-7.74-15.46-16.36V376.76a.08.08,0,0,1,.08-.08h7a.09.09,0,0,1,.08.08V398a8.69,8.69,0,0,0,17.37,0V376.76a.09.09,0,0,1,.08-.08h7a.08.08,0,0,1,.08.08" transform="translate(-74.84 -345.15)"/><rect class="cls-1" x="185.13" y="31.54" width="7.17" height="36.98"/><polygon class="cls-1" points="226.35 31.53 226.35 38.05 215.13 38.05 215.13 68.5 207.95 68.5 207.95 38.05 196.75 38.05 196.75 31.53 226.35 31.53"/><polygon class="cls-1" points="237.98 38.05 237.98 46.76 257.92 46.76 257.92 53.28 237.98 53.28 237.98 62 257.92 62 257.92 68.53 230.81 68.53 230.81 31.53 257.92 31.53 257.92 38.05 237.98 38.05"/><polygon class="cls-2" points="271.88 38.05 271.88 46.76 289.94 46.76 289.94 53.28 271.88 53.28 271.88 68.5 264.71 68.5 264.71 31.53 292.57 31.53 292.57 38.05 271.88 38.05"/><path class="cls-2" d="M401.17,413.65H394L391.41,407H375l-2.58,6.65H365.2l14.41-37h7.17Zm-12.29-13.18-5.68-14.58-5.68,14.58Z" transform="translate(-74.84 -345.15)"/><path class="cls-2" d="M431.67,401.73l6.88,1.42a19,19,0,1,1,0-17l-6.88,1.43a12.71,12.71,0,0,0-10.36-5.36,12.42,12.42,0,1,0,0,24.83,12.73,12.73,0,0,0,10.36-5.36" transform="translate(-74.84 -345.15)"/><polygon class="cls-2" points="395.47 31.53 395.47 38.05 384.24 38.05 384.24 68.5 377.07 68.5 377.07 38.05 365.87 38.05 365.87 31.53 395.47 31.53"/><path class="cls-2" d="M489.75,413.66c-12.61,0-18.79-9.65-18.79-19.25s6.18-19.15,18.79-19.15c12.41,0,18.68,9.6,18.68,19.15s-6.27,19.25-18.68,19.25m0-31.64c-7.64,0-11.44,6.24-11.44,12.53s3.8,12.39,11.44,12.39,11.38-6.19,11.38-12.39S497.29,382,489.75,382m-.05,16.13a3.63,3.63,0,1,1,3.65-3.6,3.62,3.62,0,0,1-3.65,3.6" transform="translate(-74.84 -345.15)"/><path class="cls-2" d="M536.41,413.66h-7a.63.63,0,0,1-.49-.29l-7.1-15.22h-4.19v15.08a.53.53,0,0,1-.53.43h-6.38a.51.51,0,0,1-.48-.43V391.1h13.09c1.6,0,5.74-.19,5.74-4.42s-4.58-4.46-5.74-4.46H510.28v-6.53a.51.51,0,0,1,.48-.43h12.61c2.19,0,13.13.09,13.13,11.42,0,5.86-3.26,8.93-7.15,10.32,2.43,5.43,5.06,10.71,7.49,16a.42.42,0,0,1-.43.62" transform="translate(-74.84 -345.15)"/><path class="cls-3" d="M375.42,420.53h-1.53v-.61a.32.32,0,0,0-.32-.3H367a.31.31,0,0,0-.31.3v6.44a.31.31,0,0,0,.31.31h6.53a.32.32,0,0,0,.32-.31v-2.18h-2.42v-1.51h3.95v3.69a1.83,1.83,0,0,1-1.85,1.82H367a1.82,1.82,0,0,1-1.84-1.82v-6.44A1.83,1.83,0,0,1,367,418.1h6.53a1.83,1.83,0,0,1,1.85,1.82Z" transform="translate(-74.84 -345.15)"/><polygon class="cls-3" points="311.54 74.47 303.7 74.47 303.7 77.24 310 77.24 310 78.75 303.7 78.75 303.7 81.52 311.54 81.52 311.54 83.03 302.17 83.03 302.17 72.95 311.54 72.95 311.54 74.47"/><path class="cls-3" d="M398,420.51h-1.53v-.59a.31.31,0,0,0-.31-.3h-6.53a.31.31,0,0,0-.31.3v2.16a.31.31,0,0,0,.31.31h6.53a1.82,1.82,0,0,1,1.84,1.82v2.15a1.82,1.82,0,0,1-1.84,1.82h-6.53a1.83,1.83,0,0,1-1.85-1.82v-.58h1.54v.58a.31.31,0,0,0,.31.31h6.53a.31.31,0,0,0,.31-.31v-2.15a.31.31,0,0,0-.31-.31h-6.53a1.83,1.83,0,0,1-1.85-1.82v-2.16a1.84,1.84,0,0,1,1.85-1.82h6.53a1.83,1.83,0,0,1,1.84,1.82Z" transform="translate(-74.84 -345.15)"/><polygon class="cls-3" points="334.39 72.95 334.39 74.47 330.05 74.47 330.05 83.03 328.51 83.03 328.51 74.47 324.17 74.47 324.17 72.95 334.39 72.95"/><path class="cls-3" d="M418.64,418.1a1.83,1.83,0,0,1,1.85,1.82v6.44a1.83,1.83,0,0,1-1.85,1.82h-6.53a1.82,1.82,0,0,1-1.84-1.82v-6.44a1.83,1.83,0,0,1,1.84-1.82Zm0,8.57a.32.32,0,0,0,.32-.31v-6.44a.32.32,0,0,0-.32-.3h-6.53a.31.31,0,0,0-.31.3v6.44a.31.31,0,0,0,.31.31Z" transform="translate(-74.84 -345.15)"/><path class="cls-3" d="M432.25,422.77a1.84,1.84,0,0,1-1.84,1.82h-1l2.88,3.38v.21h-1.81l-3.07-3.59h-3.49a3,3,0,0,1-.31,0v3.62H422V418.12h8.38a1.84,1.84,0,0,1,1.84,1.82Zm-1.84.3a.31.31,0,0,0,.31-.3v-2.83a.31.31,0,0,0-.31-.31h-6.53a.31.31,0,0,0-.31.31v2.83a.31.31,0,0,0,.31.3Z" transform="translate(-74.84 -345.15)"/><path class="cls-3" d="M446.28,418.1a1.84,1.84,0,0,1,1.85,1.82v6.44a1.83,1.83,0,0,1-1.85,1.82H437.9V418.1Zm.31,1.82a.31.31,0,0,0-.31-.3h-6.53a.31.31,0,0,0-.31.3v6.44a.31.31,0,0,0,.31.31h6.53a.31.31,0,0,0,.31-.31Z" transform="translate(-74.84 -345.15)"/><polygon class="cls-3" points="384.27 74.47 376.44 74.47 376.44 77.24 382.74 77.24 382.74 78.75 376.44 78.75 376.44 81.52 384.27 81.52 384.27 83.03 374.9 83.03 374.9 72.95 384.27 72.95 384.27 74.47"/><rect class="cls-3" x="389.88" y="72.95" width="1.53" height="10.08"/><polygon class="cls-3" points="401.67 72.95 403.21 72.95 403.21 83.03 401.39 83.03 394.52 74.97 394.52 83.03 392.99 83.03 392.99 72.95 394.8 72.95 401.67 81.02 401.67 72.95"/><path class="cls-3" d="M489.79,420.51h-1.54v-.59a.31.31,0,0,0-.31-.3h-6.53a.31.31,0,0,0-.31.3v2.16a.31.31,0,0,0,.31.31h6.53a1.83,1.83,0,0,1,1.85,1.82v2.15a1.83,1.83,0,0,1-1.85,1.82h-6.53a1.82,1.82,0,0,1-1.84-1.82v-.58h1.53v.58a.31.31,0,0,0,.31.31h6.53a.31.31,0,0,0,.31-.31v-2.15a.31.31,0,0,0-.31-.31h-6.53a1.82,1.82,0,0,1-1.84-1.82v-2.16a1.83,1.83,0,0,1,1.84-1.82h6.53a1.84,1.84,0,0,1,1.85,1.82Z" transform="translate(-74.84 -345.15)"/><path class="cls-3" d="M500,418.1h1.54v8.26a1.83,1.83,0,0,1-1.85,1.82h-6.53a1.82,1.82,0,0,1-1.84-1.82V418.1h1.53v8.26a.31.31,0,0,0,.31.31h6.53a.31.31,0,0,0,.31-.31Z" transform="translate(-74.84 -345.15)"/><polygon class="cls-3" points="437.97 72.95 439.8 72.95 439.8 83.03 438.27 83.03 438.27 74.97 434.01 79.97 429.75 74.97 429.75 83.03 428.22 83.03 428.22 72.95 430.04 72.95 434.01 77.62 437.97 72.95"/><path class="cls-3" d="M524.58,418.1a1.83,1.83,0,0,1,1.84,1.82v6.44a1.82,1.82,0,0,1-1.84,1.82h-6.53a1.83,1.83,0,0,1-1.85-1.82v-6.44a1.84,1.84,0,0,1,1.85-1.82Zm0,8.57a.31.31,0,0,0,.31-.31v-6.44a.31.31,0,0,0-.31-.3h-6.53a.31.31,0,0,0-.31.3v6.44a.31.31,0,0,0,.31.31Z" transform="translate(-74.84 -345.15)"/><path class="cls-3" d="M538.13,420.51H536.6v-.59a.31.31,0,0,0-.31-.3h-6.53a.31.31,0,0,0-.31.3v2.16a.31.31,0,0,0,.31.31h6.53a1.82,1.82,0,0,1,1.84,1.82v2.15a1.82,1.82,0,0,1-1.84,1.82h-6.53a1.83,1.83,0,0,1-1.85-1.82v-.58h1.54v.58a.31.31,0,0,0,.31.31h6.53a.31.31,0,0,0,.31-.31v-2.15a.31.31,0,0,0-.31-.31h-6.53a1.83,1.83,0,0,1-1.85-1.82v-2.16a1.84,1.84,0,0,1,1.85-1.82h6.53a1.83,1.83,0,0,1,1.84,1.82Z" transform="translate(-74.84 -345.15)"/><polygon class="cls-2" points="15.14 27.04 8.99 20.87 20.87 8.99 27.04 15.14 31.96 12.32 36.04 10.56 39.59 9.42 42.6 8.69 42.6 0 59.41 0 59.41 8.69 63.08 9.61 65.08 10.25 67.74 11.26 70.34 12.47 73.1 13.99 74.96 15.14 81.13 8.99 85.66 13.52 93.01 20.87 86.87 27.04 88.23 29.26 89.54 31.66 90.76 34.31 91.89 37.31 92.62 39.73 93.31 42.6 102.01 42.6 102.01 59.41 93.31 59.41 92.13 63.95 90.92 67.3 89.68 70.05 88.18 72.81 86.87 74.97 93.01 81.11 81.13 93.01 74.96 86.87 70.34 89.68 65.6 91.58 61.73 92.76 59.41 93.31 59.41 102.01 42.6 102.01 42.6 93.31 39.32 92.51 35.43 91.21 32.73 90.06 29.82 88.56 27.04 86.87 20.87 93.01 8.99 81.11 15.13 74.97 12.32 70.04 10.09 64.64 8.99 60.72 8.69 59.41 0 59.41 0 42.6 8.69 42.6 10.18 37.13 11.52 33.4 13.48 29.64 15.14 27.04"/><rect class="cls-4" x="47.92" y="4.48" width="4.48" height="3.37"/><path class="cls-4" d="M127.67,353.42h-5.32v-4.21h5.32Zm-4.49-.84h3.65v-2.53h-3.65Z" transform="translate(-74.84 -345.15)"/><rect class="cls-4" x="47.92" y="94.16" width="4.48" height="3.37"/><path class="cls-4" d="M127.67,443.1h-5.32v-4.21h5.32Zm-4.49-.84h3.65v-2.53h-3.65Z" transform="translate(-74.84 -345.15)"/><rect class="cls-4" x="92.77" y="49.32" width="4.48" height="3.37"/><path class="cls-4" d="M172.51,398.25h-5.32v-4.2h5.32Zm-4.49-.83h3.65v-2.54H168Z" transform="translate(-74.84 -345.15)"/><rect class="cls-4" x="79.31" y="17.93" width="4.48" height="3.37"/><path class="cls-4" d="M159.06,366.87h-5.32v-4.21h5.32Zm-4.49-.84h3.65V363.5h-3.65Z" transform="translate(-74.84 -345.15)"/><rect class="cls-4" x="79.31" y="80.71" width="4.48" height="3.37"/><path class="cls-4" d="M159.06,429.64h-5.32v-4.2h5.32Zm-4.49-.83h3.65v-2.54h-3.65Z" transform="translate(-74.84 -345.15)"/><rect class="cls-4" x="16.54" y="17.93" width="4.48" height="3.37"/><path class="cls-4" d="M96.28,366.87H91v-4.21h5.32ZM91.79,366h3.65V363.5H91.79Z" transform="translate(-74.84 -345.15)"/><rect class="cls-4" x="16.54" y="80.71" width="4.48" height="3.37"/><path class="cls-4" d="M96.28,429.64H91v-4.2h5.32Zm-4.49-.83h3.65v-2.54H91.79Z" transform="translate(-74.84 -345.15)"/><path class="cls-4" d="M125,360.84v-3.37a38.73,38.73,0,0,0-38.68,38.68H89.7A35.35,35.35,0,0,1,125,360.84" transform="translate(-74.84 -345.15)"/><path class="cls-4" d="M90.12,396.57H85.91v-.42A39.14,39.14,0,0,1,125,357.06h.42v4.2H125a34.93,34.93,0,0,0-34.89,34.89Zm-3.37-.83h2.53a35.78,35.78,0,0,1,35.31-35.31V357.9a38.3,38.3,0,0,0-37.84,37.84" transform="translate(-74.84 -345.15)"/><path class="cls-4" d="M125,431.46v3.37a38.73,38.73,0,0,0,38.68-38.68h-3.37A35.35,35.35,0,0,1,125,431.46" transform="translate(-74.84 -345.15)"/><path class="cls-4" d="M125,435.25h-.42V431H125a34.93,34.93,0,0,0,34.89-34.89v-.41h4.2v.41A39.14,39.14,0,0,1,125,435.25m.42-3.37v2.53a38.31,38.31,0,0,0,37.84-37.84h-2.54a35.76,35.76,0,0,1-35.3,35.31" transform="translate(-74.84 -345.15)"/><path class="cls-5" d="M148.11,400.47l1.4-6.58H132l-.68,3.24a8.25,8.25,0,0,0-.49-.76q-2.08-3-7.33-5.73a21.29,21.29,0,0,1-4.26-2.77,3.23,3.23,0,0,1-1-2.35,2.75,2.75,0,0,1,1.22-2.34,5.46,5.46,0,0,1,3.31-.9A19.08,19.08,0,0,1,128,383a29.11,29.11,0,0,1,5.86,2.56l2.19-10.67a51.9,51.9,0,0,0-6.12-1.76,34.76,34.76,0,0,0-7.64-.77,23.87,23.87,0,0,0-9.44,1.74,14.34,14.34,0,0,0-6.42,5.22,13.56,13.56,0,0,0-2.34,7.76,12.26,12.26,0,0,0,2.14,7.45,12.47,12.47,0,0,0,1.25,1.42,15.93,15.93,0,0,0,1.61,1.35c.6.44,1.25.86,2,1.28s1.49.82,2.32,1.21c.5.22,1,.44,1.39.65s.81.42,1.16.62.44.26.64.39a8.42,8.42,0,0,1,1,.73,3.3,3.3,0,0,1,.51.55,3.19,3.19,0,0,1,.67,2q0,3.44-4.81,3.43A20,20,0,0,1,102,403.85l-2.31,10.92c.45.25.93.48,1.43.71s1.49.6,1.54.63c.89.32,2.46,1.26,1.66.58.78.49,1.3,1,1.57,1.08l.09,0c.13,0,.17-.17.11-.6a4.37,4.37,0,0,0,.26.64l1.13.09.47-.32a1,1,0,0,0-.23.34l1.24.12.92-.16c-.66.35,1.32.13,2,.17s1.36.06,2.06.06a27.54,27.54,0,0,0,10-1.63,15.31,15.31,0,0,0,3.74-2.06l-1.55,7.35h8.4l2-9.73h8.29l1.44-6.58H138l1-5Z" transform="translate(-74.84 -345.15)"/><path class="cls-4" d="M151.48,397.68l1.4-6.57H135.39l-.68,3.23c-.15-.26-.32-.51-.49-.76q-2.08-2.94-7.33-5.72a21.19,21.19,0,0,1-4.26-2.78,3.21,3.21,0,0,1-1-2.34,2.77,2.77,0,0,1,1.22-2.35,5.51,5.51,0,0,1,3.31-.89,18.7,18.7,0,0,1,5.22.74,28.55,28.55,0,0,1,5.86,2.56l2.19-10.68a54,54,0,0,0-6.12-1.75,34.14,34.14,0,0,0-7.64-.78,23.84,23.84,0,0,0-9.44,1.75,14.33,14.33,0,0,0-6.42,5.21,13.58,13.58,0,0,0-2.34,7.76,12.22,12.22,0,0,0,2.14,7.45,11.67,11.67,0,0,0,1.25,1.42,15.63,15.63,0,0,0,1.6,1.36c.6.43,1.26.86,2,1.27s1.49.82,2.32,1.21l1.39.66c.42.21.81.42,1.15.62s.45.26.65.39a7.52,7.52,0,0,1,1,.72,3.79,3.79,0,0,1,.52.55,3.22,3.22,0,0,1,.67,2q0,3.42-4.81,3.42a20,20,0,0,1-11.94-4.35L103.08,412c.45.24.93.48,1.42.7s1.5.6,1.55.64c.89.32,2.46,1.26,1.66.57.36.23.64.45.9.64l.54.06.09,0a.34.34,0,0,1,.2.06h.06a2.32,2.32,0,0,0,0-.24l.09.25c.52.08,1,.19,1.56.31l.21-.15-.14.16,1.25.28.82-.15c-.66.36,1.32.14,2,.18s1.37.06,2.07.06a27.53,27.53,0,0,0,10-1.64,15.28,15.28,0,0,0,3.74-2L129.5,419h8.4l2-9.73h8.29l1.44-6.57h-8.29l1-5Z" transform="translate(-74.84 -345.15)"/></svg>